# Blender 3.6.5
# www.blender.org
mtllib untitled.mtl
o foamBulletA
v -0.010000 -0.025000 0.000000
v -0.009659 -0.025000 0.002588
v -0.009659 -0.025000 -0.002588
v -0.008660 -0.025000 -0.005000
v -0.008660 -0.025000 0.005000
v -0.007071 -0.025000 -0.007071
v -0.007071 -0.025000 0.007071
v -0.005000 -0.025000 -0.008660
v -0.005000 -0.025000 0.008660
v -0.002588 -0.025000 -0.009659
v -0.002588 -0.025000 0.009659
v 0.000000 -0.025000 -0.010000
v 0.000000 -0.025000 0.010000
v 0.002588 -0.025000 -0.009659
v 0.002588 -0.025000 0.009659
v 0.005000 -0.025000 0.008660
v 0.005000 -0.025000 -0.008660
v 0.007071 -0.025000 -0.007071
v 0.007071 -0.025000 0.007071
v 0.008660 -0.025000 -0.005000
v 0.008660 -0.025000 0.005000
v 0.009659 -0.025000 -0.002588
v 0.009659 -0.025000 0.002588
v 0.010000 -0.025000 0.000000
v -0.007071 0.025000 0.007071
v -0.007071 -0.025000 0.007071
v -0.008660 0.025000 0.005000
v -0.008660 -0.025000 0.005000
v 0.008660 -0.025000 0.005000
v 0.008660 0.025000 0.005000
v 0.009659 -0.025000 0.002588
v 0.009659 0.025000 0.002588
v 0.007071 -0.025000 0.007071
v 0.005000 -0.025000 0.008660
v 0.007071 0.025000 0.007071
v 0.005000 0.025000 0.008660
v -0.007071 -0.025000 -0.007071
v -0.005000 -0.025000 -0.008660
v -0.007071 0.025000 -0.007071
v -0.005000 0.025000 -0.008660
v 0.002588 -0.025000 0.009659
v 0.000000 -0.025000 0.010000
v 0.002588 0.025000 0.009659
v 0.000000 0.025000 0.010000
v 0.008660 -0.025000 -0.005000
v 0.008660 0.025000 -0.005000
v 0.007071 -0.025000 -0.007071
v 0.007071 0.025000 -0.007071
v 0.000000 -0.025000 0.010000
v -0.002588 -0.025000 0.009659
v 0.000000 0.025000 0.010000
v -0.002588 0.025000 0.009659
v -0.010000 0.025000 0.000000
v -0.009659 0.025000 -0.002588
v -0.009659 0.025000 0.002588
v -0.008660 0.025000 0.005000
v -0.008660 0.025000 -0.005000
v -0.007071 0.025000 0.007071
v -0.007071 0.025000 -0.007071
v -0.005000 0.025000 0.008660
v -0.005000 0.025000 -0.008660
v -0.002588 0.025000 0.009659
v -0.002588 0.025000 -0.009659
v 0.000000 0.025000 0.010000
v 0.000000 0.025000 -0.010000
v 0.002588 0.025000 0.009659
v 0.002588 0.025000 -0.009659
v 0.005000 0.025000 0.008660
v 0.005000 0.025000 -0.008660
v 0.007071 0.025000 0.007071
v 0.007071 0.025000 -0.007071
v 0.008660 0.025000 0.005000
v 0.008660 0.025000 -0.005000
v 0.009659 0.025000 0.002588
v 0.009659 0.025000 -0.002588
v 0.010000 0.025000 0.000000
v 0.000000 -0.025000 -0.010000
v 0.002588 -0.025000 -0.009659
v 0.000000 0.025000 -0.010000
v 0.002588 0.025000 -0.009659
v 0.002588 -0.025000 -0.009659
v 0.005000 -0.025000 -0.008660
v 0.002588 0.025000 -0.009659
v 0.005000 0.025000 -0.008660
v -0.008660 0.025000 -0.005000
v -0.008660 -0.025000 -0.005000
v -0.007071 0.025000 -0.007071
v -0.007071 -0.025000 -0.007071
v -0.010000 0.025000 0.000000
v -0.010000 -0.025000 0.000000
v -0.009659 0.025000 -0.002588
v -0.009659 -0.025000 -0.002588
v -0.002588 -0.025000 0.009659
v -0.005000 -0.025000 0.008660
v -0.002588 0.025000 0.009659
v -0.005000 0.025000 0.008660
v -0.005000 -0.025000 -0.008660
v -0.002588 -0.025000 -0.009659
v -0.005000 0.025000 -0.008660
v -0.002588 0.025000 -0.009659
v -0.009659 0.025000 0.002588
v -0.009659 -0.025000 0.002588
v -0.010000 0.025000 0.000000
v -0.010000 -0.025000 0.000000
v 0.005000 -0.025000 -0.008660
v 0.007071 -0.025000 -0.007071
v 0.005000 0.025000 -0.008660
v 0.007071 0.025000 -0.007071
v 0.007071 -0.025000 0.007071
v 0.007071 0.025000 0.007071
v 0.008660 -0.025000 0.005000
v 0.008660 0.025000 0.005000
v 0.009659 -0.025000 0.002588
v 0.009659 0.025000 0.002588
v 0.010000 -0.025000 0.000000
v 0.010000 0.025000 0.000000
v 0.009659 -0.025000 -0.002588
v 0.009659 0.025000 -0.002588
v 0.008660 -0.025000 -0.005000
v 0.008660 0.025000 -0.005000
v 0.005000 -0.025000 0.008660
v 0.002588 -0.025000 0.009659
v 0.005000 0.025000 0.008660
v 0.002588 0.025000 0.009659
v 0.010000 -0.025000 0.000000
v 0.010000 0.025000 0.000000
v 0.009659 -0.025000 -0.002588
v 0.009659 0.025000 -0.002588
v -0.008660 0.025000 0.005000
v -0.008660 -0.025000 0.005000
v -0.009659 0.025000 0.002588
v -0.009659 -0.025000 0.002588
v -0.005000 -0.025000 0.008660
v -0.007071 -0.025000 0.007071
v -0.005000 0.025000 0.008660
v -0.007071 0.025000 0.007071
v -0.009659 0.025000 -0.002588
v -0.009659 -0.025000 -0.002588
v -0.008660 0.025000 -0.005000
v -0.008660 -0.025000 -0.005000
v -0.002588 -0.025000 -0.009659
v 0.000000 -0.025000 -0.010000
v -0.002588 0.025000 -0.009659
v 0.000000 0.025000 -0.010000
vn -0.0000 -1.0000 -0.0000
vn -0.8660 -0.0000 0.5000
vn -0.7071 -0.0000 0.7071
vn 0.9659 -0.0000 0.2588
vn 0.8660 -0.0000 0.5000
vn 0.7071 -0.0000 0.7071
vn 0.5000 -0.0000 0.8660
vn -0.7071 -0.0000 -0.7071
vn -0.5000 -0.0000 -0.8660
vn 0.2588 -0.0000 0.9659
vn -0.0000 -0.0000 1.0000
vn 0.7071 -0.0000 -0.7071
vn 0.8660 -0.0000 -0.5000
vn -0.2588 -0.0000 0.9659
vn -0.0000 1.0000 -0.0000
vn -0.0000 -0.0000 -1.0000
vn 0.2588 -0.0000 -0.9659
vn 0.5000 -0.0000 -0.8660
vn -0.8660 -0.0000 -0.5000
vn -0.9659 -0.0000 -0.2588
vn -1.0000 -0.0000 -0.0000
vn -0.5000 -0.0000 0.8660
vn -0.2588 -0.0000 -0.9659
vn -0.9659 -0.0000 0.2588
vn 1.0000 -0.0000 -0.0000
vn 0.9659 -0.0000 -0.2588
vt 0.380286 0.101897
vt 0.380286 -0.101897
vt 0.393701 0.000000
vt 0.340955 0.196850
vt 0.340955 -0.196850
vt 0.278389 0.278389
vt 0.278389 -0.278389
vt 0.196850 0.340955
vt 0.196850 -0.340955
vt 0.101897 0.380286
vt 0.101897 -0.380286
vt 0.000000 0.393701
vt 0.000000 -0.393701
vt -0.101897 0.380286
vt -0.101897 -0.380286
vt -0.196850 -0.340955
vt -0.196850 0.340955
vt -0.278389 0.278389
vt -0.278389 -0.278389
vt -0.340955 0.196850
vt -0.340955 -0.196850
vt -0.380286 0.101897
vt -0.380286 -0.101897
vt -0.393701 0.000000
vt -0.051388 0.984252
vt 0.051388 -0.984252
vt 0.051388 0.984252
vt -0.051388 -0.984252
s 0
usemtl yellow
f 3/1/1 2/2/1 1/3/1
f 2/2/1 3/1/1 4/4/1
f 2/2/1 4/4/1 5/5/1
f 5/5/1 4/4/1 6/6/1
f 5/5/1 6/6/1 7/7/1
f 7/7/1 6/6/1 8/8/1
f 7/7/1 8/8/1 9/9/1
f 9/9/1 8/8/1 10/10/1
f 9/9/1 10/10/1 11/11/1
f 11/11/1 10/10/1 12/12/1
f 11/11/1 12/12/1 13/13/1
f 13/13/1 12/12/1 14/14/1
f 13/13/1 14/14/1 15/15/1
f 15/15/1 14/14/1 16/16/1
f 16/16/1 14/14/1 17/17/1
f 16/16/1 17/17/1 18/18/1
f 16/16/1 18/18/1 19/19/1
f 19/19/1 18/18/1 20/20/1
f 19/19/1 20/20/1 21/21/1
f 21/21/1 20/20/1 22/22/1
f 21/21/1 22/22/1 23/23/1
f 23/23/1 22/22/1 24/24/1
s 1
f 27/25/2 26/26/3 25/27/3
f 26/26/3 27/25/2 28/28/2
f 31/26/4 30/25/5 29/28/5
f 30/25/5 31/26/4 32/27/4
f 35/27/6 34/28/7 33/26/6
f 34/28/7 35/27/6 36/25/7
f 39/27/8 38/28/9 37/26/8
f 38/28/9 39/27/8 40/25/9
f 43/27/10 42/28/11 41/26/10
f 42/28/11 43/27/10 44/25/11
f 47/26/12 46/25/13 45/28/13
f 46/25/13 47/26/12 48/27/12
f 51/27/11 50/28/14 49/26/11
f 50/28/14 51/27/11 52/25/14
s 0
f 55/23/15 54/22/15 53/24/15
f 54/22/15 55/23/15 56/21/15
f 54/22/15 56/21/15 57/20/15
f 57/20/15 56/21/15 58/19/15
f 57/20/15 58/19/15 59/18/15
f 59/18/15 58/19/15 60/16/15
f 59/18/15 60/16/15 61/17/15
f 61/17/15 60/16/15 62/15/15
f 61/17/15 62/15/15 63/14/15
f 63/14/15 62/15/15 64/13/15
f 63/14/15 64/13/15 65/12/15
f 65/12/15 64/13/15 66/11/15
f 65/12/15 66/11/15 67/10/15
f 67/10/15 66/11/15 68/9/15
f 67/10/15 68/9/15 69/8/15
f 69/8/15 68/9/15 70/7/15
f 69/8/15 70/7/15 71/6/15
f 71/6/15 70/7/15 72/5/15
f 71/6/15 72/5/15 73/4/15
f 73/4/15 72/5/15 74/2/15
f 73/4/15 74/2/15 75/1/15
f 75/1/15 74/2/15 76/3/15
s 1
f 79/27/16 78/28/17 77/26/16
f 78/28/17 79/27/16 80/25/17
f 83/27/17 82/28/18 81/26/17
f 82/28/18 83/27/17 84/25/18
f 87/25/8 86/26/19 85/27/19
f 86/26/19 87/25/8 88/28/8
f 91/25/20 90/26/21 89/27/21
f 90/26/21 91/25/20 92/28/20
f 95/27/14 94/28/22 93/26/14
f 94/28/22 95/27/14 96/25/22
f 99/27/9 98/28/23 97/26/9
f 98/28/23 99/27/9 100/25/23
f 103/25/21 102/26/24 101/27/24
f 102/26/24 103/25/21 104/28/21
f 107/27/18 106/28/12 105/26/18
f 106/28/12 107/27/18 108/25/12
f 111/26/5 110/25/6 109/28/6
f 110/25/6 111/26/5 112/27/5
f 115/26/25 114/25/4 113/28/4
f 114/25/4 115/26/25 116/27/25
f 119/26/13 118/25/26 117/28/26
f 118/25/26 119/26/13 120/27/13
f 123/27/7 122/28/10 121/26/7
f 122/28/10 123/27/7 124/25/10
f 127/26/26 126/25/25 125/28/25
f 126/25/25 127/26/26 128/27/26
f 131/25/24 130/26/2 129/27/2
f 130/26/2 131/25/24 132/28/24
f 135/27/22 134/28/3 133/26/22
f 134/28/3 135/27/22 136/25/3
f 139/25/19 138/26/20 137/27/20
f 138/26/20 139/25/19 140/28/19
f 143/27/23 142/28/16 141/26/23
f 142/28/16 143/27/23 144/25/16
